<svg xmlns="http://www.w3.org/2000/svg" viewBox="0 0 80 80"><defs><style>.a{fill:#fff;}</style></defs><path class="a" d="M40,0A40,40,0,1,0,80,40,40,40,0,0,0,40,0ZM52.91,21.24c0,.49-.15.63-.63.63-1.76,0-3.51,0-5.27,0-2.2,0-2.75.61-2.77,2.79,0,1.65,0,3.29,0,4.94,0,.62.2.74.77.73,2.38,0,4.76,0,7.14,0,.68,0,.78.17.71.82-.29,2.64-.52,5.3-.71,8,0,.62-.27.73-.82.72-2.1,0-4.2,0-6.3,0-.64,0-.79.18-.79.81,0,4.42,0,8.84,0,13.26s0,8.73,0,13.1c0,.73-.12,1-1,1-3.14-.06-6.29-.05-9.44,0-.69,0-.89-.15-.89-.87q0-13,0-26.11c0-1.08,0-1.08-1.1-1.08-1.39,0-2.78,0-4.17,0-.49,0-.62-.15-.62-.63,0-2.78,0-5.56,0-8.33,0-.52.2-.61.65-.6,1.5,0,3,0,4.51,0,.61,0,.75-.19.75-.77,0-2.29,0-4.59,0-6.89a12.17,12.17,0,0,1,1.13-5.51,8.77,8.77,0,0,1,6-4.53,14.8,14.8,0,0,1,3.69-.52c2.8,0,5.61,0,8.42,0,.51,0,.67.13.67.67C52.89,15.57,52.89,18.41,52.91,21.24Z"/></svg>