<?xml version="1.0" encoding="utf-8"?>
<!-- Generator: Adobe Illustrator 25.0.1, SVG Export Plug-In . SVG Version: 6.00 Build 0)  -->
<svg version="1.1" xmlns="http://www.w3.org/2000/svg" xmlns:xlink="http://www.w3.org/1999/xlink" x="0px" y="0px"
	 viewBox="0 0 80 80" style="enable-background:new 0 0 80 80;" xml:space="preserve">
<style type="text/css">
	.st0{fill:#F2F2F2;}
	.st1{fill:#FFFFFF;}
	.st2{display:none;}
	.st3{display:inline;}
	.st4{opacity:0.3;}
	.st5{fill:#F7931E;}
	.st6{fill:#F15A24;}
	.st7{fill:#333333;}
	.st8{fill:url(#SVGID_1_);}
	.st9{fill:url(#SVGID_2_);}
	.st10{fill:url(#SVGID_3_);}
	.st11{fill:none;}
	.st12{fill:#92A6A9;}
</style>
<g id="Calendatio">
</g>
<g id="Main">
</g>
<g id="Grid" class="st2">
</g>
<g id="BG">
</g>
<g id="Header">
</g>
<g id="Contacto">
	<g>
		<path class="st1" d="M60.99,31.14c-0.04-1.67-0.08-3.4-0.43-5.06c-0.69-3.29-2.44-5.45-5.33-6.62c-1.27-0.51-2.7-0.78-4.62-0.88
			c-3.71-0.19-7.38-0.17-10.82-0.13l-2.19,0c-0.73,0-1.45,0-2.18,0c-0.94,0-1.88,0-2.82,0.02l-0.22,0c-1.75,0.03-3.57,0.05-5.32,0.3
			c-1.89,0.26-3.34,0.78-4.56,1.64c-2.12,1.49-3.34,3.67-3.74,6.67c-0.31,2.34-0.32,4.75-0.33,7.08l-0.01,2.41
			c-0.02,3.71-0.04,7.54,0.06,11.3l0.01,0.51c0.04,1.52,0.08,3.1,0.35,4.62c0.36,2.01,1.05,3.53,2.15,4.77
			c1.6,1.8,3.76,2.78,6.8,3.06c2.27,0.21,4.6,0.23,6.85,0.25l0.34,0c1.72,0.01,3.45,0.01,5.17,0.01l2.39,0
			c3.01-0.03,6.09,0,9.12-0.25c2.2-0.18,3.88-0.72,5.29-1.7c2.14-1.48,3.38-3.67,3.77-6.7c0.31-2.34,0.32-4.76,0.33-7.09l0.01-2.46
			c0.02-3.67,0.04-7.47-0.06-11.2L60.99,31.14z M39.74,53.72c0,0-0.01,0-0.01,0c-3.75,0-7.26-1.46-9.9-4.11
			c-2.64-2.65-4.08-6.17-4.07-9.92c0.03-7.69,6.3-13.94,13.98-13.94c0.01,0,0.02,0,0.03,0c7.7,0.02,13.96,6.3,13.95,14.01
			C53.71,47.46,47.44,53.72,39.74,53.72z M56.39,28.13c-0.67,0.67-1.56,1.04-2.51,1.04c0,0,0,0-0.01,0c-0.96,0-1.85-0.37-2.52-1.04
			c-0.67-0.67-1.04-1.57-1.04-2.53c0-1.98,1.55-3.54,3.53-3.55c0.01,0,0.01,0,0.02,0c0.97,0,1.86,0.36,2.53,1.02
			c0.67,0.66,1.03,1.55,1.04,2.51C57.43,26.55,57.06,27.45,56.39,28.13z"/>
		<path class="st1" d="M39.75-0.25c-22.09,0-40,17.91-40,40c0,22.09,17.91,40,40,40c22.09,0,40-17.91,40-40
			C79.75,17.66,61.84-0.25,39.75-0.25z M66.54,47.93l0,0.19c-0.04,1.98-0.08,4.02-0.48,6.02c-1.25,6.27-4.98,10.22-11.08,11.74
			c-2.54,0.63-5.16,0.66-7.69,0.68l-0.72,0.01c-2.58,0.02-5.21,0.05-7.85,0.05c-2.66,0-5.32-0.02-7.97-0.09
			c-1.86-0.05-4.16-0.11-6.34-0.65c-4.86-1.2-8.25-4.07-10.09-8.53c-1.01-2.45-1.24-5.04-1.33-7.02c-0.01-0.2-0.01-0.41-0.01-0.61
			c0-0.46,0-0.9-0.1-1.32l-0.01-17.47l0.13-0.11c-0.05-0.04-0.06-0.09-0.06-0.15c0.07-2.04,0.14-4.14,0.64-6.2
			c1.21-4.94,4.14-8.37,8.71-10.19c2.39-0.95,4.92-1.17,6.85-1.26c0.2-0.01,0.41-0.01,0.61-0.01c0.46,0,0.9,0,1.32-0.1l0.09-0.01
			h17.27l0.11,0.1c0.09-0.03,0.14-0.02,0.18-0.02l0.19,0.01c1.73,0.05,3.52,0.11,5.26,0.46c6.24,1.27,10.18,5,11.69,11.08
			c0.62,2.5,0.65,5.08,0.68,7.57l0,0.27C66.62,36.97,66.65,42.45,66.54,47.93z"/>
		<path class="st1" d="M48.17,39.88c0-2.35-0.89-4.53-2.52-6.15c-1.58-1.57-3.68-2.44-5.92-2.44c-0.01,0-0.02,0-0.03,0
			c-4.65,0.02-8.42,3.81-8.42,8.46c0,4.64,3.8,8.42,8.45,8.42C44.31,48.17,48.17,44.37,48.17,39.88z"/>
	</g>
</g>
<g id="Footer">
</g>
</svg>
