<svg xmlns="http://www.w3.org/2000/svg" viewBox="0 0 80 80"><defs><style>.a{fill:#fff;}</style></defs><path class="a" d="M40,0A40,40,0,1,0,80,40,40,40,0,0,0,40,0ZM15,26.73a1.73,1.73,0,0,1,1.7-1.36H63.27A1.72,1.72,0,0,1,65,26.76c0,.21,0,.29-.23.36a9,9,0,0,0-1.75.95q-6,3.53-12.08,7.06-5.31,3.1-10.61,6.22a.53.53,0,0,1-.61,0L26.6,33.68,15.83,27.37a1.53,1.53,0,0,0-.57-.25C15,27.1,15,26.93,15,26.73Zm50,3.42V52.76a1.74,1.74,0,0,1-1.86,1.87H16.87A1.75,1.75,0,0,1,15,52.76V30.12c0-.42,0-.42.36-.21L33.24,40.36,39.39,44a1.17,1.17,0,0,0,1.26,0L47.36,40l8.52-5,8.5-5,.62-.35Z"/></svg>