<svg xmlns="http://www.w3.org/2000/svg" viewBox="0 0 80 80"><defs><style>.a{fill:#fff;}</style></defs><path class="a" d="M40,0A40,40,0,1,0,80,40,40,40,0,0,0,40,0ZM60.63,51.79a24.11,24.11,0,0,1-15.9,10.05,24.8,24.8,0,0,1-15.65-2.37s0,0-.14,0l-8.88,2.84-2.26.71-.61.18L14,64.12l3.65-10.79c.14-.41.29-.81.45-1.22a12.48,12.48,0,0,0,.74-2.39c.05-.32-.19-.73-.6-1.37a8.48,8.48,0,0,1-.76-1.41A24.57,24.57,0,0,1,36.9,13.4,24.78,24.78,0,0,1,64.77,33.51,24,24,0,0,1,60.63,51.79Z"/><path class="a" d="M38.2,18.45C24.52,19.85,16.58,35.06,23.41,47a4.46,4.46,0,0,1,.38,4.55c-.64,1.42-1,3-1.57,4.59.44-.12.74-.19,1-.28,1.94-.61,3.88-1.21,5.81-1.85a1.27,1.27,0,0,1,1.18.14,19.41,19.41,0,1,0,8-35.72ZM51,46.76a6.33,6.33,0,0,1-6,1.52,22,22,0,0,1-13.12-9.23,16.34,16.34,0,0,1-2.27-3.95,6.53,6.53,0,0,1,1.28-7,2.48,2.48,0,0,1,2.4-.89c1.08-.26,1.55.43,1.91,1.36.45,1.19.92,2.37,1.47,3.52a1.67,1.67,0,0,1-.2,1.88,15,15,0,0,1-1.09,1.3.94.94,0,0,0-.17,1.28A15.49,15.49,0,0,0,43,43.17a.93.93,0,0,0,1.2-.29c.54-.69,1.12-1.34,1.65-2a1,1,0,0,1,1.24-.39c1.62.67,3.18,1.47,4.74,2.25a.64.64,0,0,1,.42.58A4.29,4.29,0,0,1,51,46.76Z"/></svg>