<svg xmlns="http://www.w3.org/2000/svg" viewBox="0 0 633.9115 123.1412"><defs><style>.a{fill:#ffffff;}</style></defs><title>Mis Lunas</title><path class="a" d="M628.5289,82.2774c-2.506-2.565-6.623-4.716-12.2527-6.4-9.8223-2.7523-12.9485-3.8865-13.8158-4.34-4.3968-2.453-6.5347-6.02-6.5347-10.9052a12.3269,12.3269,0,0,1,3.4766-8.7884,11.0985,11.0985,0,0,1,8.4-3.6373H622.995a5.5046,5.5046,0,0,0,4.13-1.7724,6.4654,6.4654,0,0,0,.0025-8.7238,5.5205,5.5205,0,0,0-4.1321-1.7725H608.5842A22.416,22.416,0,0,0,591.844,43.2a24.4094,24.4094,0,0,0-6.8625,17.4318c0,6.9132,1.81,12.31,5.3977,16.0616,2.6043,2.5559,6.7112,4.7292,12.2249,6.4635,10.2207,3.024,13.1427,4.0434,13.7856,4.3612,4.427,2.2406,6.5776,5.6141,6.5776,10.3143a12.17,12.17,0,0,1-3.4716,8.7885,11.1118,11.1118,0,0,1-8.4029,3.6372H589.8674a5.4153,5.4153,0,0,0-4.0514,1.7725,6.1564,6.1564,0,0,0-1.6942,4.4839,5.9515,5.9515,0,0,0,1.6917,4.24,5.4359,5.4359,0,0,0,4.0539,1.7724h20.4388a22.5426,22.5426,0,0,0,16.7453-7.1848,24.6819,24.6819,0,0,0,6.86-17.51C633.9115,91.0171,632.0963,85.7775,628.5289,82.2774Z"/><path class="a" d="M196.0866,82.8916c-2.506-2.5651-6.623-4.716-12.2527-6.4-9.8223-2.7524-12.9485-3.8865-13.8157-4.34-4.3969-2.4529-6.5348-6.02-6.5348-10.9051a12.3273,12.3273,0,0,1,3.4766-8.7885,11.0989,11.0989,0,0,1,8.4-3.6372h15.1923a5.5044,5.5044,0,0,0,4.13-1.7724,6.4657,6.4657,0,0,0,.0026-8.7239,5.5211,5.5211,0,0,0-4.1322-1.7724H176.142a22.416,22.416,0,0,0-16.74,7.2626,24.41,24.41,0,0,0-6.8625,17.4318c0,6.9131,1.81,12.31,5.3977,16.0616,2.6044,2.5558,6.7113,4.7292,12.225,6.4634,10.2206,3.024,13.1426,4.0434,13.7855,4.3613,4.4271,2.2406,6.5776,5.6141,6.5776,10.3143a12.17,12.17,0,0,1-3.4716,8.7884,11.1114,11.1114,0,0,1-8.4029,3.6373H157.4252a5.4158,5.4158,0,0,0-4.0515,1.7724,6.1566,6.1566,0,0,0-1.6942,4.4839,5.9512,5.9512,0,0,0,1.6917,4.24,5.4357,5.4357,0,0,0,4.054,1.7725h20.4387a22.5424,22.5424,0,0,0,16.7453-7.1848,24.6815,24.6815,0,0,0,6.86-17.51C201.4692,91.6312,199.654,86.3917,196.0866,82.8916Z"/><path class="a" d="M102.1587,0c-4.0891,0-7.81,1.0237-13.3456,3.4626-16.0511,6.9063-23.0624,21.498-32.02,35.98a1.4043,1.4043,0,0,1-2.4051,0C45.43,24.9606,38.419,10.3689,22.368,3.4626,16.8323,1.0237,13.1114,0,9.0223,0Q-.0021,0,0,7.1289v108.463a6.9251,6.9251,0,0,0,1.8939,4.9127,6.0738,6.0738,0,0,0,4.6017,2.0224,6.0694,6.0694,0,0,0,4.6017-2.0224,6.9194,6.9194,0,0,0,1.8953-4.9127V14.0326a.8209.8209,0,0,1,1.152-.7662c10.9755,5.148,14.0069,9.0784,21.9525,18.923,8.2389,10.21,12.9977,23.7154,12.9977,35.66a6.5936,6.5936,0,0,0,1.894,4.8173,6.4616,6.4616,0,0,0,9.2033,0,6.5936,6.5936,0,0,0,1.8939-4.8173c0-11.9446,4.7589-25.45,12.9978-35.66,7.9456-9.8446,10.977-13.775,21.9525-18.923a.8208.8208,0,0,1,1.1519.7662V115.5919a6.919,6.919,0,0,0,1.8954,4.9127,6.2464,6.2464,0,0,0,9.2033,0,6.9247,6.9247,0,0,0,1.894-4.9127V7.1289Q111.1811.003,102.1587,0Z"/><path class="a" d="M136.6351,20.4193a10.4943,10.4943,0,0,1,.9212-7.4324,9.3109,9.3109,0,0,1,2.0569-2.6984,9.0113,9.0113,0,0,0-4.1107.1183,8.3753,8.3753,0,0,0-5.48,4.5584,10.4935,10.4935,0,0,0-.9211,7.4323,8.71,8.71,0,0,0,4.0754,5.7149,8.8242,8.8242,0,0,0,7.0341.8668,8.1086,8.1086,0,0,0,3.3614-1.7962,8.484,8.484,0,0,1-2.8622-1.0489A8.7105,8.7105,0,0,1,136.6351,20.4193Z"/><path class="a" d="M135.27,36.1478a5.4912,5.4912,0,0,0-4.079,1.7814,5.7942,5.7942,0,0,0-1.7232,4.158v73.9906a6.7619,6.7619,0,0,0,1.6467,4.497,5.0534,5.0534,0,0,0,3.9986,1.9522,6.1778,6.1778,0,0,0,4.2347-1.6973,5.4738,5.4738,0,0,0,1.8826-4.2421V42.597a6.4373,6.4373,0,0,0-1.8023-4.4983A5.5267,5.5267,0,0,0,135.27,36.1478Z"/><path class="a" d="M380.8748,109.7754q-11.9232,12.75-28.6144,12.7516-16.8518,0-28.7725-12.7516Q311.5647,97.023,311.5672,78.9945q0,.172-.1607-35.366a6.4053,6.4053,0,0,1,1.829-4.5063,5.5866,5.5866,0,0,1,8.3443-.1668,5.7919,5.7919,0,0,1,1.75,4.1767V79.1092a31.0564,31.0564,0,0,0,8.4258,21.9925,27.6054,27.6054,0,0,0,40.854,0,31.0765,31.0765,0,0,0,8.4234-21.9925V43.6432a6.6876,6.6876,0,0,1,1.7015-4.5157,5.1816,5.1816,0,0,1,4.028-1.9616q5.7205,0,5.7244,5.95l.3112,35.8784Q392.7981,97.0211,380.8748,109.7754Z"/><path class="a" d="M483.1565,116.0778a6.4286,6.4286,0,0,1-1.8036,4.497,5.5217,5.5217,0,0,1-4.1581,1.9522,5.6286,5.6286,0,0,1-4.079-1.6973,5.7,5.7,0,0,1-1.7245-4.2421V80.78a30.9416,30.9416,0,0,0-8.4233-21.807,27.5182,27.5182,0,0,0-40.854,0,30.9216,30.9216,0,0,0-8.4259,21.807v35.1285a6.6244,6.6244,0,0,1-1.8035,4.6664,5.4771,5.4771,0,0,1-8.2346.1708,5.9926,5.9926,0,0,1-1.7245-4.3275V80.61a43.0767,43.0767,0,0,1,11.7856-30.462q11.7893-12.64,28.67-12.6422,16.7217,0,28.668,12.7276A43.06,43.06,0,0,1,482.9957,80.78Z"/><path class="a" d="M573.673,116.5876a5.4841,5.4841,0,0,1-1.8265,4.3275,6.19,6.19,0,0,1-4.2117,1.6119q-4.4541,0-5.4055-5.0907-.1608-.8487-.1608-8.8245-12.08,13.9152-28.9307,13.9152t-28.7725-12.7276A43.32,43.32,0,0,1,492.442,79.0825a43.1074,43.1074,0,0,1,11.9233-30.546q11.9234-12.7284,28.7725-12.7277,16.6911,0,28.6144,12.7277a43.1048,43.1048,0,0,1,11.9208,30.546ZM561.91,79.0825a30.9352,30.9352,0,0,0-8.4259-21.807,27.5208,27.5208,0,0,0-40.854,0,30.9324,30.9324,0,0,0-8.4233,21.807,30.63,30.63,0,0,0,8.4233,21.723,27.6937,27.6937,0,0,0,40.854,0A30.633,30.633,0,0,0,561.91,79.0825Z"/><path class="a" d="M309.8631,111.5913a5.622,5.622,0,0,0-4.2037-1.8029H277.2165a12.4771,12.4771,0,0,1-9.4236-4.1159,13.6492,13.6492,0,0,1-3.9342-9.859V6.1162A6.1652,6.1652,0,0,0,262.1161,1.7,5.8249,5.8249,0,0,0,257.7739,0a5.68,5.68,0,0,0-4.1216,1.72,6.1439,6.1439,0,0,0-1.7246,4.3965V95.8135a26.23,26.23,0,0,0,7.3783,18.7353,23.9529,23.9529,0,0,0,17.9105,7.7218h28.4429a5.62,5.62,0,0,0,4.2011-1.803,6.5763,6.5763,0,0,0,.0026-8.8763Z"/></svg>